<mxfile host="app.diagrams.net" modified="2023-05-06T06:51:46.915Z" agent="Mozilla/5.0 (Windows NT 10.0; Win64; x64) AppleWebKit/537.36 (KHTML, like Gecko) Chrome/112.0.0.0 Safari/537.36" etag="cYCiPtYH3ol39GwSqhMP" version="21.2.8" type="github">
  <diagram id="C5RBs43oDa-KdzZeNtuy" name="Page-1">
    <mxGraphModel dx="2327" dy="1942" grid="1" gridSize="10" guides="1" tooltips="1" connect="1" arrows="1" fold="1" page="1" pageScale="1" pageWidth="827" pageHeight="1169" math="0" shadow="0">
      <root>
        <mxCell id="WIyWlLk6GJQsqaUBKTNV-0" />
        <mxCell id="WIyWlLk6GJQsqaUBKTNV-1" parent="WIyWlLk6GJQsqaUBKTNV-0" />
        <mxCell id="Y0dImnukWvkpnwRvtKVF-49" value="" style="rounded=0;whiteSpace=wrap;html=1;fillColor=#dae8fc;strokeColor=#6c8ebf;fontSize=16;" vertex="1" parent="WIyWlLk6GJQsqaUBKTNV-1">
          <mxGeometry x="-310" y="1340" width="1260" height="920" as="geometry" />
        </mxCell>
        <mxCell id="WIyWlLk6GJQsqaUBKTNV-2" value="" style="rounded=0;html=1;jettySize=auto;orthogonalLoop=1;fontSize=16;endArrow=block;endFill=0;endSize=8;strokeWidth=1;shadow=0;labelBackgroundColor=none;edgeStyle=orthogonalEdgeStyle;" parent="WIyWlLk6GJQsqaUBKTNV-1" source="WIyWlLk6GJQsqaUBKTNV-3" target="WIyWlLk6GJQsqaUBKTNV-6" edge="1">
          <mxGeometry relative="1" as="geometry" />
        </mxCell>
        <mxCell id="WIyWlLk6GJQsqaUBKTNV-3" value="Lamp doesn&#39;t work" style="rounded=1;whiteSpace=wrap;html=1;fontSize=16;glass=0;strokeWidth=1;shadow=0;" parent="WIyWlLk6GJQsqaUBKTNV-1" vertex="1">
          <mxGeometry x="-80" y="100" width="120" height="40" as="geometry" />
        </mxCell>
        <mxCell id="WIyWlLk6GJQsqaUBKTNV-4" value="Yes" style="rounded=0;html=1;jettySize=auto;orthogonalLoop=1;fontSize=16;endArrow=block;endFill=0;endSize=8;strokeWidth=1;shadow=0;labelBackgroundColor=none;edgeStyle=orthogonalEdgeStyle;" parent="WIyWlLk6GJQsqaUBKTNV-1" source="WIyWlLk6GJQsqaUBKTNV-6" target="WIyWlLk6GJQsqaUBKTNV-10" edge="1">
          <mxGeometry y="20" relative="1" as="geometry">
            <mxPoint as="offset" />
          </mxGeometry>
        </mxCell>
        <mxCell id="WIyWlLk6GJQsqaUBKTNV-5" value="No" style="edgeStyle=orthogonalEdgeStyle;rounded=0;html=1;jettySize=auto;orthogonalLoop=1;fontSize=16;endArrow=block;endFill=0;endSize=8;strokeWidth=1;shadow=0;labelBackgroundColor=none;" parent="WIyWlLk6GJQsqaUBKTNV-1" source="WIyWlLk6GJQsqaUBKTNV-6" target="WIyWlLk6GJQsqaUBKTNV-7" edge="1">
          <mxGeometry y="10" relative="1" as="geometry">
            <mxPoint as="offset" />
          </mxGeometry>
        </mxCell>
        <mxCell id="WIyWlLk6GJQsqaUBKTNV-6" value="Lamp&lt;br style=&quot;font-size: 16px;&quot;&gt;plugged in?" style="rhombus;whiteSpace=wrap;html=1;shadow=0;fontFamily=Helvetica;fontSize=16;align=center;strokeWidth=1;spacing=6;spacingTop=-4;" parent="WIyWlLk6GJQsqaUBKTNV-1" vertex="1">
          <mxGeometry x="-70" y="190" width="100" height="80" as="geometry" />
        </mxCell>
        <mxCell id="WIyWlLk6GJQsqaUBKTNV-7" value="Plug in lamp" style="rounded=1;whiteSpace=wrap;html=1;fontSize=16;glass=0;strokeWidth=1;shadow=0;" parent="WIyWlLk6GJQsqaUBKTNV-1" vertex="1">
          <mxGeometry x="80" y="210" width="120" height="40" as="geometry" />
        </mxCell>
        <mxCell id="WIyWlLk6GJQsqaUBKTNV-8" value="No" style="rounded=0;html=1;jettySize=auto;orthogonalLoop=1;fontSize=16;endArrow=block;endFill=0;endSize=8;strokeWidth=1;shadow=0;labelBackgroundColor=none;edgeStyle=orthogonalEdgeStyle;" parent="WIyWlLk6GJQsqaUBKTNV-1" source="WIyWlLk6GJQsqaUBKTNV-10" target="WIyWlLk6GJQsqaUBKTNV-11" edge="1">
          <mxGeometry x="0.3333" y="20" relative="1" as="geometry">
            <mxPoint as="offset" />
          </mxGeometry>
        </mxCell>
        <mxCell id="WIyWlLk6GJQsqaUBKTNV-9" value="Yes" style="edgeStyle=orthogonalEdgeStyle;rounded=0;html=1;jettySize=auto;orthogonalLoop=1;fontSize=16;endArrow=block;endFill=0;endSize=8;strokeWidth=1;shadow=0;labelBackgroundColor=none;" parent="WIyWlLk6GJQsqaUBKTNV-1" source="WIyWlLk6GJQsqaUBKTNV-10" target="WIyWlLk6GJQsqaUBKTNV-12" edge="1">
          <mxGeometry y="10" relative="1" as="geometry">
            <mxPoint as="offset" />
          </mxGeometry>
        </mxCell>
        <mxCell id="WIyWlLk6GJQsqaUBKTNV-10" value="Bulb&lt;br style=&quot;font-size: 16px;&quot;&gt;burned out?" style="rhombus;whiteSpace=wrap;html=1;shadow=0;fontFamily=Helvetica;fontSize=16;align=center;strokeWidth=1;spacing=6;spacingTop=-4;" parent="WIyWlLk6GJQsqaUBKTNV-1" vertex="1">
          <mxGeometry x="-70" y="310" width="100" height="80" as="geometry" />
        </mxCell>
        <mxCell id="WIyWlLk6GJQsqaUBKTNV-11" value="Repair Lamp" style="rounded=1;whiteSpace=wrap;html=1;fontSize=16;glass=0;strokeWidth=1;shadow=0;" parent="WIyWlLk6GJQsqaUBKTNV-1" vertex="1">
          <mxGeometry x="-80" y="450" width="120" height="40" as="geometry" />
        </mxCell>
        <mxCell id="WIyWlLk6GJQsqaUBKTNV-12" value="Replace Bulb" style="rounded=1;whiteSpace=wrap;html=1;fontSize=16;glass=0;strokeWidth=1;shadow=0;" parent="WIyWlLk6GJQsqaUBKTNV-1" vertex="1">
          <mxGeometry x="80" y="330" width="120" height="40" as="geometry" />
        </mxCell>
        <mxCell id="Y0dImnukWvkpnwRvtKVF-0" value="normal state" style="rounded=1;whiteSpace=wrap;html=1;fontSize=16;" vertex="1" parent="WIyWlLk6GJQsqaUBKTNV-1">
          <mxGeometry x="590" y="-170" width="120" height="60" as="geometry" />
        </mxCell>
        <mxCell id="Y0dImnukWvkpnwRvtKVF-1" value="Set key is pressed?" style="rhombus;whiteSpace=wrap;html=1;fontSize=16;" vertex="1" parent="WIyWlLk6GJQsqaUBKTNV-1">
          <mxGeometry x="590" y="55" width="100" height="90" as="geometry" />
        </mxCell>
        <mxCell id="Y0dImnukWvkpnwRvtKVF-4" value="Set state" style="rounded=1;whiteSpace=wrap;html=1;fontSize=16;" vertex="1" parent="WIyWlLk6GJQsqaUBKTNV-1">
          <mxGeometry x="780" y="205" width="120" height="60" as="geometry" />
        </mxCell>
        <mxCell id="Y0dImnukWvkpnwRvtKVF-6" value="display &quot;Set&quot;" style="rounded=0;whiteSpace=wrap;html=1;fontSize=16;" vertex="1" parent="WIyWlLk6GJQsqaUBKTNV-1">
          <mxGeometry x="780" y="310" width="120" height="60" as="geometry" />
        </mxCell>
        <mxCell id="Y0dImnukWvkpnwRvtKVF-7" value="Key 1 is pressed?" style="rhombus;whiteSpace=wrap;html=1;fontSize=16;" vertex="1" parent="WIyWlLk6GJQsqaUBKTNV-1">
          <mxGeometry x="795" y="410" width="90" height="80" as="geometry" />
        </mxCell>
        <mxCell id="Y0dImnukWvkpnwRvtKVF-8" value="Alcohol threshold increases by 1" style="rounded=0;whiteSpace=wrap;html=1;fontSize=16;" vertex="1" parent="WIyWlLk6GJQsqaUBKTNV-1">
          <mxGeometry x="780" y="540" width="120" height="60" as="geometry" />
        </mxCell>
        <mxCell id="Y0dImnukWvkpnwRvtKVF-9" value="Key 2 is pressed?" style="rhombus;whiteSpace=wrap;html=1;fontSize=16;" vertex="1" parent="WIyWlLk6GJQsqaUBKTNV-1">
          <mxGeometry x="795" y="640" width="95" height="80" as="geometry" />
        </mxCell>
        <mxCell id="Y0dImnukWvkpnwRvtKVF-10" value="Alcohol threshold decreases by 1" style="rounded=0;whiteSpace=wrap;html=1;fontSize=16;" vertex="1" parent="WIyWlLk6GJQsqaUBKTNV-1">
          <mxGeometry x="782.5" y="760" width="120" height="60" as="geometry" />
        </mxCell>
        <mxCell id="Y0dImnukWvkpnwRvtKVF-12" value="OLED displays physical quantities" style="rounded=0;whiteSpace=wrap;html=1;fontSize=16;" vertex="1" parent="WIyWlLk6GJQsqaUBKTNV-1">
          <mxGeometry x="590" y="-40" width="120" height="60" as="geometry" />
        </mxCell>
        <mxCell id="Y0dImnukWvkpnwRvtKVF-13" value="Is nomral state?" style="rhombus;whiteSpace=wrap;html=1;fontSize=16;" vertex="1" parent="WIyWlLk6GJQsqaUBKTNV-1">
          <mxGeometry x="590" y="180" width="100" height="85" as="geometry" />
        </mxCell>
        <mxCell id="Y0dImnukWvkpnwRvtKVF-14" value="Normal state" style="rounded=1;whiteSpace=wrap;html=1;fontSize=16;" vertex="1" parent="WIyWlLk6GJQsqaUBKTNV-1">
          <mxGeometry x="400" y="205" width="120" height="60" as="geometry" />
        </mxCell>
        <mxCell id="Y0dImnukWvkpnwRvtKVF-16" value="display whether people surround" style="rounded=0;whiteSpace=wrap;html=1;fontSize=16;" vertex="1" parent="WIyWlLk6GJQsqaUBKTNV-1">
          <mxGeometry x="400" y="310" width="120" height="60" as="geometry" />
        </mxCell>
        <mxCell id="Y0dImnukWvkpnwRvtKVF-17" value="display average light density" style="rounded=0;whiteSpace=wrap;html=1;fontSize=16;" vertex="1" parent="WIyWlLk6GJQsqaUBKTNV-1">
          <mxGeometry x="400" y="420" width="120" height="60" as="geometry" />
        </mxCell>
        <mxCell id="Y0dImnukWvkpnwRvtKVF-18" value="display average alcohol density" style="rounded=0;whiteSpace=wrap;html=1;fontSize=16;" vertex="1" parent="WIyWlLk6GJQsqaUBKTNV-1">
          <mxGeometry x="400" y="520" width="120" height="60" as="geometry" />
        </mxCell>
        <mxCell id="Y0dImnukWvkpnwRvtKVF-19" value="Alcohol density is lager than threshold?" style="rhombus;whiteSpace=wrap;html=1;fontSize=16;" vertex="1" parent="WIyWlLk6GJQsqaUBKTNV-1">
          <mxGeometry x="400" y="640" width="120" height="110" as="geometry" />
        </mxCell>
        <mxCell id="Y0dImnukWvkpnwRvtKVF-20" value="display &quot;abnormal&quot;" style="rounded=0;whiteSpace=wrap;html=1;fontSize=16;" vertex="1" parent="WIyWlLk6GJQsqaUBKTNV-1">
          <mxGeometry x="550" y="850" width="120" height="60" as="geometry" />
        </mxCell>
        <mxCell id="Y0dImnukWvkpnwRvtKVF-21" value="abnormal state" style="rounded=1;whiteSpace=wrap;html=1;fontSize=16;" vertex="1" parent="WIyWlLk6GJQsqaUBKTNV-1">
          <mxGeometry x="550" y="750" width="120" height="60" as="geometry" />
        </mxCell>
        <mxCell id="Y0dImnukWvkpnwRvtKVF-22" value="buzzer buzzes and voice alarm rings" style="rounded=0;whiteSpace=wrap;html=1;fontSize=16;" vertex="1" parent="WIyWlLk6GJQsqaUBKTNV-1">
          <mxGeometry x="550" y="940" width="120" height="60" as="geometry" />
        </mxCell>
        <mxCell id="Y0dImnukWvkpnwRvtKVF-23" value="relay cuts off and red light on" style="rounded=0;whiteSpace=wrap;html=1;fontSize=16;" vertex="1" parent="WIyWlLk6GJQsqaUBKTNV-1">
          <mxGeometry x="550" y="1020" width="120" height="60" as="geometry" />
        </mxCell>
        <mxCell id="Y0dImnukWvkpnwRvtKVF-26" value="Have sent message?" style="rhombus;whiteSpace=wrap;html=1;fontSize=16;" vertex="1" parent="WIyWlLk6GJQsqaUBKTNV-1">
          <mxGeometry x="570" y="1110" width="80" height="80" as="geometry" />
        </mxCell>
        <mxCell id="Y0dImnukWvkpnwRvtKVF-50" value="" style="group;fillColor=#ffe6cc;strokeColor=#d79b00;fontSize=16;" vertex="1" connectable="0" parent="WIyWlLk6GJQsqaUBKTNV-1">
          <mxGeometry x="-260" y="1600" width="410" height="350" as="geometry" />
        </mxCell>
        <mxCell id="Y0dImnukWvkpnwRvtKVF-28" value="Abnormal State" style="text;html=1;strokeColor=none;fillColor=none;align=center;verticalAlign=middle;whiteSpace=wrap;rounded=0;container=0;fontSize=16;" vertex="1" parent="Y0dImnukWvkpnwRvtKVF-50">
          <mxGeometry x="10" y="9.49" width="140" height="30.51" as="geometry" />
        </mxCell>
        <mxCell id="Y0dImnukWvkpnwRvtKVF-31" value="display &quot;abnormal&quot;" style="rounded=1;whiteSpace=wrap;html=1;container=0;fontSize=16;" vertex="1" parent="Y0dImnukWvkpnwRvtKVF-50">
          <mxGeometry x="220" y="56.923076923076906" width="120" height="56.92307692307692" as="geometry" />
        </mxCell>
        <mxCell id="Y0dImnukWvkpnwRvtKVF-32" value="buzzer buzzes" style="rounded=1;whiteSpace=wrap;html=1;container=0;fontSize=16;" vertex="1" parent="Y0dImnukWvkpnwRvtKVF-50">
          <mxGeometry x="30" y="56.923076923076906" width="120" height="56.92307692307692" as="geometry" />
        </mxCell>
        <mxCell id="Y0dImnukWvkpnwRvtKVF-33" value="relay cuts off and red light on" style="rounded=1;whiteSpace=wrap;html=1;container=0;fontSize=16;" vertex="1" parent="Y0dImnukWvkpnwRvtKVF-50">
          <mxGeometry x="30" y="151.79487179487182" width="120" height="56.92307692307692" as="geometry" />
        </mxCell>
        <mxCell id="Y0dImnukWvkpnwRvtKVF-34" value="sends alarm message to target phone" style="rounded=1;whiteSpace=wrap;html=1;container=0;fontSize=16;" vertex="1" parent="Y0dImnukWvkpnwRvtKVF-50">
          <mxGeometry x="30" y="242.4838461538462" width="120" height="56.92307692307692" as="geometry" />
        </mxCell>
        <mxCell id="Y0dImnukWvkpnwRvtKVF-35" value="Have sent message?" style="rhombus;whiteSpace=wrap;html=1;container=0;fontSize=16;" vertex="1" parent="Y0dImnukWvkpnwRvtKVF-50">
          <mxGeometry x="235" y="231.99769230769226" width="90" height="75.8974358974359" as="geometry" />
        </mxCell>
        <mxCell id="Y0dImnukWvkpnwRvtKVF-48" value="voice alarm rings" style="rounded=1;whiteSpace=wrap;html=1;container=0;fontSize=16;" vertex="1" parent="Y0dImnukWvkpnwRvtKVF-50">
          <mxGeometry x="220" y="150.25999999999996" width="120" height="60" as="geometry" />
        </mxCell>
        <mxCell id="Y0dImnukWvkpnwRvtKVF-94" value="" style="endArrow=classic;html=1;rounded=0;entryX=1;entryY=0.5;entryDx=0;entryDy=0;exitX=0;exitY=0.5;exitDx=0;exitDy=0;" edge="1" parent="Y0dImnukWvkpnwRvtKVF-50" source="Y0dImnukWvkpnwRvtKVF-31" target="Y0dImnukWvkpnwRvtKVF-32">
          <mxGeometry width="50" height="50" relative="1" as="geometry">
            <mxPoint x="330" y="240" as="sourcePoint" />
            <mxPoint x="380" y="190" as="targetPoint" />
          </mxGeometry>
        </mxCell>
        <mxCell id="Y0dImnukWvkpnwRvtKVF-95" value="" style="endArrow=classic;html=1;rounded=0;entryX=0.5;entryY=0;entryDx=0;entryDy=0;exitX=0.5;exitY=1;exitDx=0;exitDy=0;" edge="1" parent="Y0dImnukWvkpnwRvtKVF-50" source="Y0dImnukWvkpnwRvtKVF-32" target="Y0dImnukWvkpnwRvtKVF-33">
          <mxGeometry width="50" height="50" relative="1" as="geometry">
            <mxPoint x="310" y="250" as="sourcePoint" />
            <mxPoint x="360" y="200" as="targetPoint" />
          </mxGeometry>
        </mxCell>
        <mxCell id="Y0dImnukWvkpnwRvtKVF-96" value="" style="endArrow=classic;html=1;rounded=0;exitX=1;exitY=0.5;exitDx=0;exitDy=0;entryX=0;entryY=0.5;entryDx=0;entryDy=0;" edge="1" parent="Y0dImnukWvkpnwRvtKVF-50" source="Y0dImnukWvkpnwRvtKVF-33" target="Y0dImnukWvkpnwRvtKVF-48">
          <mxGeometry width="50" height="50" relative="1" as="geometry">
            <mxPoint x="180" y="230" as="sourcePoint" />
            <mxPoint x="230" y="180" as="targetPoint" />
          </mxGeometry>
        </mxCell>
        <mxCell id="Y0dImnukWvkpnwRvtKVF-97" value="" style="endArrow=classic;html=1;rounded=0;exitX=0.5;exitY=1;exitDx=0;exitDy=0;entryX=0.5;entryY=0;entryDx=0;entryDy=0;" edge="1" parent="Y0dImnukWvkpnwRvtKVF-50" source="Y0dImnukWvkpnwRvtKVF-48" target="Y0dImnukWvkpnwRvtKVF-35">
          <mxGeometry width="50" height="50" relative="1" as="geometry">
            <mxPoint x="340" y="280" as="sourcePoint" />
            <mxPoint x="390" y="230" as="targetPoint" />
          </mxGeometry>
        </mxCell>
        <mxCell id="Y0dImnukWvkpnwRvtKVF-99" value="" style="endArrow=classic;html=1;rounded=0;entryX=1;entryY=0.5;entryDx=0;entryDy=0;exitX=0;exitY=0.5;exitDx=0;exitDy=0;" edge="1" parent="Y0dImnukWvkpnwRvtKVF-50" source="Y0dImnukWvkpnwRvtKVF-35" target="Y0dImnukWvkpnwRvtKVF-34">
          <mxGeometry width="50" height="50" relative="1" as="geometry">
            <mxPoint x="170" y="320" as="sourcePoint" />
            <mxPoint x="220" y="270" as="targetPoint" />
          </mxGeometry>
        </mxCell>
        <mxCell id="Y0dImnukWvkpnwRvtKVF-51" value="Normal State" style="text;html=1;strokeColor=none;fillColor=none;align=center;verticalAlign=middle;whiteSpace=wrap;rounded=0;fontSize=16;" vertex="1" parent="WIyWlLk6GJQsqaUBKTNV-1">
          <mxGeometry x="-170" y="1380" width="120" height="40" as="geometry" />
        </mxCell>
        <mxCell id="Y0dImnukWvkpnwRvtKVF-53" value="Start" style="strokeWidth=2;html=1;shape=mxgraph.flowchart.start_1;whiteSpace=wrap;fontSize=16;" vertex="1" parent="WIyWlLk6GJQsqaUBKTNV-1">
          <mxGeometry x="295" y="1360" width="90" height="40" as="geometry" />
        </mxCell>
        <mxCell id="Y0dImnukWvkpnwRvtKVF-54" value="Set key is pressed?" style="rhombus;whiteSpace=wrap;html=1;fontSize=16;" vertex="1" parent="WIyWlLk6GJQsqaUBKTNV-1">
          <mxGeometry x="282.5" y="1513" width="115" height="90" as="geometry" />
        </mxCell>
        <mxCell id="Y0dImnukWvkpnwRvtKVF-58" value="OLED displays physical quantities" style="rounded=1;whiteSpace=wrap;html=1;fontSize=16;" vertex="1" parent="WIyWlLk6GJQsqaUBKTNV-1">
          <mxGeometry x="270" y="1419" width="140" height="70" as="geometry" />
        </mxCell>
        <mxCell id="Y0dImnukWvkpnwRvtKVF-59" value="" style="group;fontSize=16;" vertex="1" connectable="0" parent="WIyWlLk6GJQsqaUBKTNV-1">
          <mxGeometry x="480" y="1606" width="410" height="340" as="geometry" />
        </mxCell>
        <mxCell id="Y0dImnukWvkpnwRvtKVF-36" value="" style="rounded=0;whiteSpace=wrap;html=1;fillColor=#d5e8d4;strokeColor=#82b366;container=0;fontSize=16;" vertex="1" parent="Y0dImnukWvkpnwRvtKVF-59">
          <mxGeometry width="410" height="340" as="geometry" />
        </mxCell>
        <mxCell id="Y0dImnukWvkpnwRvtKVF-37" value="Set State" style="text;html=1;strokeColor=none;fillColor=none;align=center;verticalAlign=middle;whiteSpace=wrap;rounded=0;container=0;fontSize=16;" vertex="1" parent="Y0dImnukWvkpnwRvtKVF-59">
          <mxGeometry x="10" y="10" width="110" height="30" as="geometry" />
        </mxCell>
        <mxCell id="Y0dImnukWvkpnwRvtKVF-38" value="display &quot;Set&quot;" style="rounded=1;whiteSpace=wrap;html=1;container=0;fontSize=16;" vertex="1" parent="Y0dImnukWvkpnwRvtKVF-59">
          <mxGeometry x="147.5" y="26" width="120" height="60" as="geometry" />
        </mxCell>
        <mxCell id="Y0dImnukWvkpnwRvtKVF-43" value="Key 1 is pressed?" style="rhombus;whiteSpace=wrap;html=1;container=0;fontSize=16;" vertex="1" parent="Y0dImnukWvkpnwRvtKVF-59">
          <mxGeometry x="52.5" y="113" width="90" height="80" as="geometry" />
        </mxCell>
        <mxCell id="Y0dImnukWvkpnwRvtKVF-44" value="Alcohol threshold increases by 1" style="rounded=1;whiteSpace=wrap;html=1;container=0;fontSize=16;" vertex="1" parent="Y0dImnukWvkpnwRvtKVF-59">
          <mxGeometry x="225" y="124" width="125" height="60" as="geometry" />
        </mxCell>
        <mxCell id="Y0dImnukWvkpnwRvtKVF-45" value="Key 2 is pressed?" style="rhombus;whiteSpace=wrap;html=1;container=0;fontSize=16;" vertex="1" parent="Y0dImnukWvkpnwRvtKVF-59">
          <mxGeometry x="50.5" y="223" width="95" height="80" as="geometry" />
        </mxCell>
        <mxCell id="Y0dImnukWvkpnwRvtKVF-46" value="Alcohol threshold decreases by 1" style="rounded=1;whiteSpace=wrap;html=1;container=0;fontSize=16;" vertex="1" parent="Y0dImnukWvkpnwRvtKVF-59">
          <mxGeometry x="225" y="233" width="125" height="60" as="geometry" />
        </mxCell>
        <mxCell id="Y0dImnukWvkpnwRvtKVF-102" value="" style="endArrow=classic;html=1;rounded=0;exitX=0.5;exitY=1;exitDx=0;exitDy=0;entryX=0.5;entryY=0;entryDx=0;entryDy=0;edgeStyle=orthogonalEdgeStyle;" edge="1" parent="Y0dImnukWvkpnwRvtKVF-59" source="Y0dImnukWvkpnwRvtKVF-38" target="Y0dImnukWvkpnwRvtKVF-43">
          <mxGeometry width="50" height="50" relative="1" as="geometry">
            <mxPoint x="180" y="214" as="sourcePoint" />
            <mxPoint x="230" y="164" as="targetPoint" />
            <Array as="points">
              <mxPoint x="208" y="94" />
              <mxPoint x="98" y="94" />
            </Array>
          </mxGeometry>
        </mxCell>
        <mxCell id="Y0dImnukWvkpnwRvtKVF-103" value="" style="endArrow=classic;html=1;rounded=0;entryX=0;entryY=0.5;entryDx=0;entryDy=0;exitX=1;exitY=0.5;exitDx=0;exitDy=0;" edge="1" parent="Y0dImnukWvkpnwRvtKVF-59" source="Y0dImnukWvkpnwRvtKVF-43" target="Y0dImnukWvkpnwRvtKVF-44">
          <mxGeometry width="50" height="50" relative="1" as="geometry">
            <mxPoint x="130" y="204" as="sourcePoint" />
            <mxPoint x="180" y="154" as="targetPoint" />
          </mxGeometry>
        </mxCell>
        <mxCell id="Y0dImnukWvkpnwRvtKVF-104" value="" style="endArrow=classic;html=1;rounded=0;exitX=0.5;exitY=1;exitDx=0;exitDy=0;entryX=0.5;entryY=0;entryDx=0;entryDy=0;" edge="1" parent="Y0dImnukWvkpnwRvtKVF-59" source="Y0dImnukWvkpnwRvtKVF-43" target="Y0dImnukWvkpnwRvtKVF-45">
          <mxGeometry width="50" height="50" relative="1" as="geometry">
            <mxPoint x="160" y="234" as="sourcePoint" />
            <mxPoint x="210" y="184" as="targetPoint" />
          </mxGeometry>
        </mxCell>
        <mxCell id="Y0dImnukWvkpnwRvtKVF-105" value="" style="endArrow=classic;html=1;rounded=0;exitX=0.451;exitY=0.98;exitDx=0;exitDy=0;exitPerimeter=0;edgeStyle=orthogonalEdgeStyle;" edge="1" parent="Y0dImnukWvkpnwRvtKVF-59" source="Y0dImnukWvkpnwRvtKVF-44">
          <mxGeometry width="50" height="50" relative="1" as="geometry">
            <mxPoint x="180" y="274" as="sourcePoint" />
            <mxPoint x="100" y="204" as="targetPoint" />
            <Array as="points">
              <mxPoint x="281" y="204" />
              <mxPoint x="100" y="204" />
            </Array>
          </mxGeometry>
        </mxCell>
        <mxCell id="Y0dImnukWvkpnwRvtKVF-106" value="" style="endArrow=classic;html=1;rounded=0;exitX=1;exitY=0.5;exitDx=0;exitDy=0;entryX=0;entryY=0.5;entryDx=0;entryDy=0;" edge="1" parent="Y0dImnukWvkpnwRvtKVF-59" source="Y0dImnukWvkpnwRvtKVF-45" target="Y0dImnukWvkpnwRvtKVF-46">
          <mxGeometry width="50" height="50" relative="1" as="geometry">
            <mxPoint x="200" y="424" as="sourcePoint" />
            <mxPoint x="250" y="374" as="targetPoint" />
          </mxGeometry>
        </mxCell>
        <mxCell id="Y0dImnukWvkpnwRvtKVF-61" value="display whether people surround" style="rounded=1;whiteSpace=wrap;html=1;fontSize=16;" vertex="1" parent="WIyWlLk6GJQsqaUBKTNV-1">
          <mxGeometry x="274.5" y="1736" width="131" height="60" as="geometry" />
        </mxCell>
        <mxCell id="Y0dImnukWvkpnwRvtKVF-62" value="display average light density" style="rounded=1;whiteSpace=wrap;html=1;fontSize=16;" vertex="1" parent="WIyWlLk6GJQsqaUBKTNV-1">
          <mxGeometry x="274.5" y="1820" width="131" height="60" as="geometry" />
        </mxCell>
        <mxCell id="Y0dImnukWvkpnwRvtKVF-63" value="display average alcohol density" style="rounded=1;whiteSpace=wrap;html=1;fontSize=16;" vertex="1" parent="WIyWlLk6GJQsqaUBKTNV-1">
          <mxGeometry x="274.51" y="1910" width="131" height="60" as="geometry" />
        </mxCell>
        <mxCell id="Y0dImnukWvkpnwRvtKVF-64" value="" style="group;fillColor=#e51400;fontColor=#ffffff;strokeColor=#B20000;fontSize=16;" vertex="1" connectable="0" parent="WIyWlLk6GJQsqaUBKTNV-1">
          <mxGeometry x="-390" y="2810" width="410" height="350" as="geometry" />
        </mxCell>
        <mxCell id="Y0dImnukWvkpnwRvtKVF-65" value="" style="rounded=0;whiteSpace=wrap;html=1;fillColor=#fff2cc;strokeColor=#d6b656;container=0;fontSize=16;" vertex="1" parent="Y0dImnukWvkpnwRvtKVF-64">
          <mxGeometry width="410" height="350" as="geometry" />
        </mxCell>
        <mxCell id="Y0dImnukWvkpnwRvtKVF-66" value="Abnormal State" style="text;html=1;strokeColor=none;fillColor=none;align=center;verticalAlign=middle;whiteSpace=wrap;rounded=0;container=0;fontSize=16;" vertex="1" parent="Y0dImnukWvkpnwRvtKVF-64">
          <mxGeometry x="10" y="9.487179487179446" width="110" height="28.46153846153846" as="geometry" />
        </mxCell>
        <mxCell id="Y0dImnukWvkpnwRvtKVF-67" value="display &quot;abnormal&quot;" style="rounded=1;whiteSpace=wrap;html=1;container=0;fontSize=16;" vertex="1" parent="Y0dImnukWvkpnwRvtKVF-64">
          <mxGeometry x="30" y="56.923076923076906" width="120" height="56.92307692307692" as="geometry" />
        </mxCell>
        <mxCell id="Y0dImnukWvkpnwRvtKVF-68" value="buzzer buzzes" style="rounded=1;whiteSpace=wrap;html=1;container=0;fontSize=16;" vertex="1" parent="Y0dImnukWvkpnwRvtKVF-64">
          <mxGeometry x="220" y="56.923076923076906" width="120" height="56.92307692307692" as="geometry" />
        </mxCell>
        <mxCell id="Y0dImnukWvkpnwRvtKVF-69" value="relay cuts off and red light on" style="rounded=1;whiteSpace=wrap;html=1;container=0;fontSize=16;" vertex="1" parent="Y0dImnukWvkpnwRvtKVF-64">
          <mxGeometry x="30" y="151.79487179487182" width="120" height="56.92307692307692" as="geometry" />
        </mxCell>
        <mxCell id="Y0dImnukWvkpnwRvtKVF-70" value="sends alarm message to target phone" style="rounded=1;whiteSpace=wrap;html=1;container=0;fontSize=16;" vertex="1" parent="Y0dImnukWvkpnwRvtKVF-64">
          <mxGeometry x="220" y="256.1538461538462" width="120" height="56.92307692307692" as="geometry" />
        </mxCell>
        <mxCell id="Y0dImnukWvkpnwRvtKVF-71" value="Have sent message?" style="rhombus;whiteSpace=wrap;html=1;container=0;fontSize=16;" vertex="1" parent="Y0dImnukWvkpnwRvtKVF-64">
          <mxGeometry x="40" y="237.17769230769227" width="90" height="75.8974358974359" as="geometry" />
        </mxCell>
        <mxCell id="Y0dImnukWvkpnwRvtKVF-72" value="voice alarm rings" style="rounded=1;whiteSpace=wrap;html=1;container=0;fontSize=16;" vertex="1" parent="Y0dImnukWvkpnwRvtKVF-64">
          <mxGeometry x="220" y="151.78999999999996" width="120" height="60" as="geometry" />
        </mxCell>
        <mxCell id="Y0dImnukWvkpnwRvtKVF-73" value="Alcohol density is lager than threshold?" style="rhombus;whiteSpace=wrap;html=1;fontSize=16;" vertex="1" parent="WIyWlLk6GJQsqaUBKTNV-1">
          <mxGeometry x="265" y="2000" width="150" height="130" as="geometry" />
        </mxCell>
        <mxCell id="Y0dImnukWvkpnwRvtKVF-74" value="Set key is pressed again?" style="rhombus;whiteSpace=wrap;html=1;fontSize=16;" vertex="1" parent="WIyWlLk6GJQsqaUBKTNV-1">
          <mxGeometry x="266.13" y="1617" width="147.75" height="90" as="geometry" />
        </mxCell>
        <mxCell id="Y0dImnukWvkpnwRvtKVF-78" value="Update data at OLED" style="rounded=1;whiteSpace=wrap;html=1;fontSize=16;" vertex="1" parent="WIyWlLk6GJQsqaUBKTNV-1">
          <mxGeometry x="280.01" y="2160" width="120" height="60" as="geometry" />
        </mxCell>
        <mxCell id="Y0dImnukWvkpnwRvtKVF-81" value="" style="endArrow=classic;html=1;rounded=0;exitX=0.5;exitY=1;exitDx=0;exitDy=0;exitPerimeter=0;entryX=0.5;entryY=0;entryDx=0;entryDy=0;" edge="1" parent="WIyWlLk6GJQsqaUBKTNV-1" source="Y0dImnukWvkpnwRvtKVF-53" target="Y0dImnukWvkpnwRvtKVF-58">
          <mxGeometry width="50" height="50" relative="1" as="geometry">
            <mxPoint x="335" y="1300" as="sourcePoint" />
            <mxPoint x="385" y="1250" as="targetPoint" />
          </mxGeometry>
        </mxCell>
        <mxCell id="Y0dImnukWvkpnwRvtKVF-82" value="" style="endArrow=classic;html=1;rounded=0;exitX=0.5;exitY=1;exitDx=0;exitDy=0;entryX=0.5;entryY=0;entryDx=0;entryDy=0;" edge="1" parent="WIyWlLk6GJQsqaUBKTNV-1" source="Y0dImnukWvkpnwRvtKVF-58" target="Y0dImnukWvkpnwRvtKVF-54">
          <mxGeometry width="50" height="50" relative="1" as="geometry">
            <mxPoint x="440" y="1520" as="sourcePoint" />
            <mxPoint x="490" y="1470" as="targetPoint" />
          </mxGeometry>
        </mxCell>
        <mxCell id="Y0dImnukWvkpnwRvtKVF-83" value="" style="endArrow=classic;html=1;rounded=0;exitX=0.5;exitY=1;exitDx=0;exitDy=0;entryX=0.5;entryY=0;entryDx=0;entryDy=0;" edge="1" parent="WIyWlLk6GJQsqaUBKTNV-1" source="Y0dImnukWvkpnwRvtKVF-54" target="Y0dImnukWvkpnwRvtKVF-74">
          <mxGeometry width="50" height="50" relative="1" as="geometry">
            <mxPoint x="200" y="1650" as="sourcePoint" />
            <mxPoint x="250" y="1600" as="targetPoint" />
          </mxGeometry>
        </mxCell>
        <mxCell id="Y0dImnukWvkpnwRvtKVF-84" value="" style="endArrow=classic;html=1;rounded=0;exitX=0.5;exitY=1;exitDx=0;exitDy=0;entryX=0.5;entryY=0;entryDx=0;entryDy=0;" edge="1" parent="WIyWlLk6GJQsqaUBKTNV-1" source="Y0dImnukWvkpnwRvtKVF-74" target="Y0dImnukWvkpnwRvtKVF-61">
          <mxGeometry width="50" height="50" relative="1" as="geometry">
            <mxPoint x="450" y="1680" as="sourcePoint" />
            <mxPoint x="500" y="1630" as="targetPoint" />
          </mxGeometry>
        </mxCell>
        <mxCell id="Y0dImnukWvkpnwRvtKVF-85" value="" style="endArrow=classic;html=1;rounded=0;exitX=0.5;exitY=1;exitDx=0;exitDy=0;entryX=0.5;entryY=0;entryDx=0;entryDy=0;" edge="1" parent="WIyWlLk6GJQsqaUBKTNV-1" source="Y0dImnukWvkpnwRvtKVF-61" target="Y0dImnukWvkpnwRvtKVF-62">
          <mxGeometry width="50" height="50" relative="1" as="geometry">
            <mxPoint x="440" y="1950" as="sourcePoint" />
            <mxPoint x="490" y="1900" as="targetPoint" />
          </mxGeometry>
        </mxCell>
        <mxCell id="Y0dImnukWvkpnwRvtKVF-86" value="" style="endArrow=classic;html=1;rounded=0;exitX=0.5;exitY=1;exitDx=0;exitDy=0;entryX=0.5;entryY=0;entryDx=0;entryDy=0;" edge="1" parent="WIyWlLk6GJQsqaUBKTNV-1" source="Y0dImnukWvkpnwRvtKVF-62" target="Y0dImnukWvkpnwRvtKVF-63">
          <mxGeometry width="50" height="50" relative="1" as="geometry">
            <mxPoint x="440" y="1850" as="sourcePoint" />
            <mxPoint x="490" y="1800" as="targetPoint" />
          </mxGeometry>
        </mxCell>
        <mxCell id="Y0dImnukWvkpnwRvtKVF-87" value="" style="endArrow=classic;html=1;rounded=0;exitX=0.5;exitY=1;exitDx=0;exitDy=0;entryX=0.5;entryY=0;entryDx=0;entryDy=0;" edge="1" parent="WIyWlLk6GJQsqaUBKTNV-1" source="Y0dImnukWvkpnwRvtKVF-63" target="Y0dImnukWvkpnwRvtKVF-73">
          <mxGeometry width="50" height="50" relative="1" as="geometry">
            <mxPoint x="420" y="2030" as="sourcePoint" />
            <mxPoint x="470" y="1980" as="targetPoint" />
          </mxGeometry>
        </mxCell>
        <mxCell id="Y0dImnukWvkpnwRvtKVF-88" value="" style="endArrow=classic;html=1;rounded=0;exitX=0.5;exitY=1;exitDx=0;exitDy=0;entryX=0.5;entryY=0;entryDx=0;entryDy=0;" edge="1" parent="WIyWlLk6GJQsqaUBKTNV-1" source="Y0dImnukWvkpnwRvtKVF-73" target="Y0dImnukWvkpnwRvtKVF-78">
          <mxGeometry width="50" height="50" relative="1" as="geometry">
            <mxPoint x="460" y="2210" as="sourcePoint" />
            <mxPoint x="510" y="2160" as="targetPoint" />
          </mxGeometry>
        </mxCell>
        <mxCell id="Y0dImnukWvkpnwRvtKVF-91" value="" style="endArrow=classic;html=1;rounded=0;exitX=0;exitY=0.5;exitDx=0;exitDy=0;edgeStyle=orthogonalEdgeStyle;" edge="1" parent="WIyWlLk6GJQsqaUBKTNV-1" source="Y0dImnukWvkpnwRvtKVF-54">
          <mxGeometry width="50" height="50" relative="1" as="geometry">
            <mxPoint x="190" y="1770" as="sourcePoint" />
            <mxPoint x="340" y="1720" as="targetPoint" />
            <Array as="points">
              <mxPoint x="230" y="1555" />
              <mxPoint x="230" y="1720" />
            </Array>
          </mxGeometry>
        </mxCell>
        <mxCell id="Y0dImnukWvkpnwRvtKVF-92" value="" style="endArrow=classic;html=1;rounded=0;entryX=0;entryY=0.5;entryDx=0;entryDy=0;exitX=1;exitY=0.5;exitDx=0;exitDy=0;" edge="1" parent="WIyWlLk6GJQsqaUBKTNV-1" source="Y0dImnukWvkpnwRvtKVF-74" target="Y0dImnukWvkpnwRvtKVF-38">
          <mxGeometry width="50" height="50" relative="1" as="geometry">
            <mxPoint x="410" y="1740" as="sourcePoint" />
            <mxPoint x="460" y="1690" as="targetPoint" />
          </mxGeometry>
        </mxCell>
        <mxCell id="Y0dImnukWvkpnwRvtKVF-93" value="" style="endArrow=classic;html=1;rounded=0;exitX=0;exitY=0.5;exitDx=0;exitDy=0;entryX=1;entryY=0.5;entryDx=0;entryDy=0;edgeStyle=orthogonalEdgeStyle;" edge="1" parent="WIyWlLk6GJQsqaUBKTNV-1" source="Y0dImnukWvkpnwRvtKVF-73" target="Y0dImnukWvkpnwRvtKVF-31">
          <mxGeometry width="50" height="50" relative="1" as="geometry">
            <mxPoint x="170" y="2050" as="sourcePoint" />
            <mxPoint x="120" y="1940" as="targetPoint" />
            <Array as="points">
              <mxPoint x="190" y="2065" />
              <mxPoint x="190" y="1685" />
            </Array>
          </mxGeometry>
        </mxCell>
        <mxCell id="Y0dImnukWvkpnwRvtKVF-100" value="" style="endArrow=classic;html=1;rounded=0;exitX=0.5;exitY=1;exitDx=0;exitDy=0;edgeStyle=orthogonalEdgeStyle;" edge="1" parent="WIyWlLk6GJQsqaUBKTNV-1" source="Y0dImnukWvkpnwRvtKVF-34">
          <mxGeometry width="50" height="50" relative="1" as="geometry">
            <mxPoint x="-50" y="2050" as="sourcePoint" />
            <mxPoint x="340" y="2140" as="targetPoint" />
            <Array as="points">
              <mxPoint x="-170" y="2140" />
            </Array>
          </mxGeometry>
        </mxCell>
        <mxCell id="Y0dImnukWvkpnwRvtKVF-101" value="" style="endArrow=classic;html=1;rounded=0;exitX=0.5;exitY=1;exitDx=0;exitDy=0;" edge="1" parent="WIyWlLk6GJQsqaUBKTNV-1" source="Y0dImnukWvkpnwRvtKVF-35">
          <mxGeometry width="50" height="50" relative="1" as="geometry">
            <mxPoint x="-10" y="2060" as="sourcePoint" />
            <mxPoint x="20" y="2140" as="targetPoint" />
          </mxGeometry>
        </mxCell>
        <mxCell id="Y0dImnukWvkpnwRvtKVF-107" value="" style="endArrow=classic;html=1;rounded=0;exitX=0.5;exitY=1;exitDx=0;exitDy=0;edgeStyle=orthogonalEdgeStyle;" edge="1" parent="WIyWlLk6GJQsqaUBKTNV-1" source="Y0dImnukWvkpnwRvtKVF-46">
          <mxGeometry width="50" height="50" relative="1" as="geometry">
            <mxPoint x="740" y="2060" as="sourcePoint" />
            <mxPoint x="340" y="2140" as="targetPoint" />
            <Array as="points">
              <mxPoint x="768" y="2140" />
            </Array>
          </mxGeometry>
        </mxCell>
        <mxCell id="Y0dImnukWvkpnwRvtKVF-108" value="" style="endArrow=classic;html=1;rounded=0;exitX=0.5;exitY=1;exitDx=0;exitDy=0;" edge="1" parent="WIyWlLk6GJQsqaUBKTNV-1" source="Y0dImnukWvkpnwRvtKVF-45">
          <mxGeometry width="50" height="50" relative="1" as="geometry">
            <mxPoint x="550" y="2090" as="sourcePoint" />
            <mxPoint x="580" y="2140" as="targetPoint" />
          </mxGeometry>
        </mxCell>
        <mxCell id="Y0dImnukWvkpnwRvtKVF-109" value="" style="endArrow=classic;html=1;rounded=0;exitX=1;exitY=0.5;exitDx=0;exitDy=0;edgeStyle=elbowEdgeStyle;" edge="1" parent="WIyWlLk6GJQsqaUBKTNV-1" source="Y0dImnukWvkpnwRvtKVF-78">
          <mxGeometry width="50" height="50" relative="1" as="geometry">
            <mxPoint x="470" y="2260" as="sourcePoint" />
            <mxPoint x="340" y="1500" as="targetPoint" />
            <Array as="points">
              <mxPoint x="920" y="1610" />
            </Array>
          </mxGeometry>
        </mxCell>
      </root>
    </mxGraphModel>
  </diagram>
</mxfile>
